<svg width="15" height="15" viewBox="0 0 15 15" fill="none" xmlns="http://www.w3.org/2000/svg">
<path fill-rule="evenodd" clip-rule="evenodd" d="M3.93262 0.600342L13.4717 0.600342C13.6403 0.600342 13.8021 0.667342 13.9214 0.786604C14.0406 0.905865 14.1076 1.06762 14.1076 1.23628V10.7753C14.1076 11.1266 13.8229 11.4113 13.4717 11.4113C13.1205 11.4113 12.8357 11.1266 12.8357 10.7753V2.77157L1.20261 14.4047C0.954261 14.6531 0.551608 14.6531 0.303259 14.4047C0.0549095 14.1564 0.0549095 13.7537 0.303259 13.5054L11.9364 1.87222L3.93262 1.87222C3.5814 1.87222 3.29668 1.5875 3.29668 1.23628C3.29668 0.885061 3.5814 0.600342 3.93262 0.600342Z" fill="#FFD11A"/>
</svg>
